<svg xmlns="http://www.w3.org/2000/svg" xmlns:xlink="http://www.w3.org/1999/xlink" width="240" height="60" viewBox="0 0 240 60"><defs><clipPath id="a"><rect width="33" height="34" fill="#ee6b6b" opacity="0.6"/></clipPath></defs><rect width="240" height="60" rx="30" transform="translate(0 0)" fill="#fbd474"/><g transform="translate(36.857 13)"><g clip-path="url(#a)"><path d="M19.639,13.949,6.5.774l16.717,9.6-3.578,3.578ZM3.071,0A2.314,2.314,0,0,0,1.779,2.1V28.374a2.314,2.314,0,0,0,1.292,2.1l15.276-15.24ZM28.384,13.431,24.878,11.4l-3.911,3.84,3.911,3.84,3.578-2.03a2.388,2.388,0,0,0-.071-3.62ZM6.5,29.707l16.717-9.6-3.578-3.578Z" transform="translate(0.991 1.834)" fill="#1a1a1a"/></g><text transform="translate(102 23)" fill="#1a1a1a" font-size="21" font-family="NanumSquareOTFB, NanumSquareOTF" letter-spacing="-0.025em"><tspan x="-52.301" y="0">GooglePlay</tspan></text></g></svg>