<svg xmlns="http://www.w3.org/2000/svg" xmlns:xlink="http://www.w3.org/1999/xlink" width="240" height="60" viewBox="0 0 240 60"><defs><clipPath id="a"><rect width="34" height="34" fill="#ee6b6b" opacity="0.6"/></clipPath></defs><rect width="240" height="60" rx="30" transform="translate(0 0)" fill="#fbd474"/><g transform="translate(49.679 13)"><g clip-path="url(#a)"><path d="M28.38,19.854a7.633,7.633,0,0,1,3.642-6.424,7.879,7.879,0,0,0-6.169-3.343c-2.627-.266-5.126,1.547-6.46,1.547s-3.388-1.507-5.567-1.468A8.254,8.254,0,0,0,6.848,14.4c-2.975,5.163-.762,12.811,2.138,17,1.417,2.049,3.107,4.352,5.325,4.269,2.136-.085,2.944-1.382,5.527-1.382s3.309,1.382,5.57,1.34c2.3-.043,3.755-2.089,5.163-4.145a18.6,18.6,0,0,0,2.337-4.8,7.451,7.451,0,0,1-4.527-6.825ZM24.132,7.316a7.435,7.435,0,0,0,1.755-5.388,7.563,7.563,0,0,0-4.969,2.555A7.073,7.073,0,0,0,19.127,9.7,6.257,6.257,0,0,0,24.132,7.316Z" transform="translate(-2.553 -1.788)" fill="#1a1a1a"/></g><text transform="translate(90 23)" fill="#1a1a1a" font-size="21" font-family="NanumSquareOTFB, NanumSquareOTF" letter-spacing="-0.025em"><tspan x="-43.481" y="0">Appstore</tspan></text></g></svg>