<svg xmlns="http://www.w3.org/2000/svg" xmlns:xlink="http://www.w3.org/1999/xlink" width="125.391" height="83.614" viewBox="0 0 125.391 83.614"><defs><clipPath id="a"><rect width="125.391" height="83.614" fill="none"/></clipPath></defs><g transform="translate(0 0)"><rect width="125.391" height="83.614" fill="#fff"/><g clip-path="url(#a)"><path d="M55.406,18.2A20.2,20.2,0,0,0,36.531,30.944h0a11.06,11.06,0,0,0,1.683,8.175,9.738,9.738,0,0,0,7.574,3.847A12.984,12.984,0,0,0,53.843,40.2c1.683-1.2,3.006-2.765,4.689-3.847a11.3,11.3,0,0,1,6.612-1.8,8.536,8.536,0,0,1,3.967,1.082A9.377,9.377,0,0,1,73.2,42.365a21.28,21.28,0,0,1,0,5.65A20.2,20.2,0,0,0,55.406,18.2" transform="translate(7.349 3.68)" fill="#cd2e3a"/><path d="M73.482,40.2a9.377,9.377,0,0,0-4.088-6.612,8.536,8.536,0,0,0-3.967-1.082,11.3,11.3,0,0,0-6.612,1.8c-1.683,1.082-3.126,2.645-4.689,3.847a12.984,12.984,0,0,1-8.055,2.765A9.738,9.738,0,0,1,38.5,37.075,11.06,11.06,0,0,1,36.814,28.9h0A20.2,20.2,0,0,0,73.482,45.851a21.4,21.4,0,0,0,0-5.65" transform="translate(7.066 5.844)" fill="#0047a0"/><rect width="19.837" height="3.306" transform="translate(27.953 30.869) rotate(-55.6)"/><rect width="19.837" height="3.306" transform="translate(24.48 28.42) rotate(-55.6)"/><rect width="19.837" height="3.306" transform="translate(21.007 26.091) rotate(-55.6)"/><rect width="9.124" height="3.302" transform="matrix(0.571, -0.821, 0.821, 0.571, 90.096, 72.789)"/><rect width="9.124" height="3.302" transform="matrix(0.571, -0.821, 0.821, 0.571, 86.538, 70.409)"/><rect width="9.124" height="3.302" transform="matrix(0.571, -0.821, 0.821, 0.571, 83.036, 67.942)"/><rect width="9.124" height="3.302" transform="matrix(0.571, -0.821, 0.821, 0.571, 96.546, 63.397)"/><rect width="9.124" height="3.302" transform="matrix(0.571, -0.821, 0.821, 0.571, 92.976, 61.017)"/><rect width="9.124" height="3.302" transform="matrix(0.571, -0.821, 0.821, 0.571, 89.473, 58.538)"/><rect width="3.366" height="19.861" transform="translate(28.306 51.882) rotate(-31.5)"/><rect width="3.366" height="8.091" transform="translate(30.856 64.313) rotate(-31.5)"/><rect width="3.366" height="10.075" transform="translate(24.667 54.225) rotate(-31.5)"/><rect width="3.366" height="19.861" transform="matrix(0.852, -0.524, 0.524, 0.852, 21.131, 56.395)"/><rect width="3.366" height="9.089" transform="translate(96.828 21.377) rotate(-31.5)"/><rect width="3.366" height="9.089" transform="translate(89.635 25.813) rotate(-31.5)"/><rect width="3.366" height="9.089" transform="translate(90.987 11.686) rotate(-31.5)"/><rect width="3.366" height="20.426" transform="translate(87.216 13.912) rotate(-31.5)"/><rect width="3.366" height="9.089" transform="translate(83.572 16.185) rotate(-31.5)"/></g></g></svg>