<svg xmlns="http://www.w3.org/2000/svg" xmlns:xlink="http://www.w3.org/1999/xlink" width="24" height="24" viewBox="0 0 24 24"><defs><clipPath id="a"><rect width="24" height="24" transform="translate(211 -91)" fill="#fff"/></clipPath></defs><g transform="translate(-211 91)" clip-path="url(#a)"><path d="M5,17H0V7H5ZM7,7V17l9,5V2Zm17,4H19v2h5ZM22.416,4.768l-4.332,2.5,1,1.732,4.332-2.5Zm1,12.732L19.084,15l-1,1.732,4.332,2.5Z" transform="translate(211 -91)" fill="#fff"/><path d="M12,0A12,12,0,1,0,24,12,12,12,0,0,0,12,0Zm9,12a8.95,8.95,0,0,1-1.672,5.207L6.793,4.672A8.986,8.986,0,0,1,21,12ZM3,12A8.95,8.95,0,0,1,4.672,6.793L17.206,19.327A8.985,8.985,0,0,1,3,12Z" transform="translate(211 -91)" fill="#d50420"/></g></svg>