<svg xmlns="http://www.w3.org/2000/svg" xmlns:xlink="http://www.w3.org/1999/xlink" width="100" height="100" viewBox="0 0 100 100"><defs><clipPath id="a"><rect width="100" height="100" transform="translate(2074 -809)" fill="#fff"/></clipPath></defs><g transform="translate(-2074 809)" clip-path="url(#a)"><path d="M50,8.333A41.667,41.667,0,1,1,8.333,50,41.714,41.714,0,0,1,50,8.333ZM50,0a50,50,0,1,0,50,50A50,50,0,0,0,50,0ZM43.75,28S42.216,21.119,50,21.119,56.25,28,56.25,28L52.083,61.333a2.094,2.094,0,0,1-4.167,0ZM50,79.042a5.208,5.208,0,1,1,5.208-5.208A5.21,5.21,0,0,1,50,79.042Z" transform="translate(2074 -809)" fill="#f60033"/></g></svg>