<svg xmlns="http://www.w3.org/2000/svg" xmlns:xlink="http://www.w3.org/1999/xlink" width="80" height="80" viewBox="0 0 80 80">
  <defs>
    <clipPath id="clip-path">
      <rect id="사각형_218" data-name="사각형 218" width="80" height="80" transform="translate(230 304)" fill="#fff"/>
    </clipPath>
  </defs>
  <g id="마스크_그룹_26" data-name="마스크 그룹 26" transform="translate(-230 -304)" clip-path="url(#clip-path)">
    <g id="그룹_71" data-name="그룹 71" transform="translate(-182.33 34.588)">
      <path id="패스_91" data-name="패스 91" d="M465.269,271.412h-35.3a5.651,5.651,0,0,0-5.638,5.663v64.674a5.651,5.651,0,0,0,5.638,5.663h43.723a5.651,5.651,0,0,0,5.638-5.663V285.535Z" transform="translate(0)" fill="#fff" stroke="#1a1311" stroke-miterlimit="10" stroke-width="2"/>
      <g id="그룹_70" data-name="그룹 70" transform="translate(432.349 298.589)">
        <path id="패스_88" data-name="패스 88" d="M444.24,307.759V310.7H453.2v1.716H432.771V310.7h9.4v-2.937Zm1.292-2.915a19.951,19.951,0,0,0,3.056,1.3,26.416,26.416,0,0,0,3.314.882l-1.035,1.6q-.822-.188-1.739-.483t-1.833-.658q-.916-.363-1.776-.8a17.627,17.627,0,0,1-1.586-.9,25.286,25.286,0,0,1-4.125,1.751,28.939,28.939,0,0,1-4.407,1.07l-.964-1.551a28.15,28.15,0,0,0,3.715-.776,24.128,24.128,0,0,0,3.2-1.14,20.829,20.829,0,0,0,2.62-1.375,11.634,11.634,0,0,0,1.939-1.481q-1.245.048-2.456.059t-2.48.012h-4.888v-1.669h9.624q1.492,0,3.114-.048a.34.34,0,0,1,.376.177.43.43,0,0,1-.024.411,8.961,8.961,0,0,1-1.516,1.916A14.833,14.833,0,0,1,445.532,304.844Zm4.865,12.928a2.8,2.8,0,0,1-.458,1.539,3.889,3.889,0,0,1-1.375,1.245,8.145,8.145,0,0,1-2.28.835,16.536,16.536,0,0,1-6.322,0,8.133,8.133,0,0,1-2.28-.835,4,4,0,0,1-1.386-1.245,2.748,2.748,0,0,1-.471-1.539,2.7,2.7,0,0,1,.471-1.529,3.861,3.861,0,0,1,1.386-1.21,8.17,8.17,0,0,1,2.28-.788,17.85,17.85,0,0,1,6.322,0,8.181,8.181,0,0,1,2.28.788,3.756,3.756,0,0,1,1.375,1.21A2.748,2.748,0,0,1,450.4,317.772Zm-2.185,0a1.506,1.506,0,0,0-.247-.8,2.135,2.135,0,0,0-.846-.716,5.994,5.994,0,0,0-1.574-.518,12.283,12.283,0,0,0-2.409-.2,12.429,12.429,0,0,0-2.433.2,5.982,5.982,0,0,0-1.574.518,2.134,2.134,0,0,0-.846.716,1.513,1.513,0,0,0-.246.8,1.57,1.57,0,0,0,.246.81,2.094,2.094,0,0,0,.846.729,5.982,5.982,0,0,0,1.574.517,12.418,12.418,0,0,0,2.433.2,12.272,12.272,0,0,0,2.409-.2,5.994,5.994,0,0,0,1.574-.517,2.094,2.094,0,0,0,.846-.729A1.563,1.563,0,0,0,448.212,317.772Z" transform="translate(-432.771 -300.05)" fill="#1a1311"/>
        <path id="패스_89" data-name="패스 89" d="M466.925,308.916a11.884,11.884,0,0,1-.424,3.33,7.275,7.275,0,0,1-1.167,2.413,4.923,4.923,0,0,1-1.756,1.46,4.865,4.865,0,0,1-2.166.494,4.8,4.8,0,0,1-2.155-.494,5.065,5.065,0,0,1-1.756-1.46,7.317,7.317,0,0,1-1.189-2.413,12.922,12.922,0,0,1,0-6.65,7.333,7.333,0,0,1,1.189-2.4,5.072,5.072,0,0,1,1.756-1.459,4.8,4.8,0,0,1,2.155-.495,4.865,4.865,0,0,1,2.166.495,4.93,4.93,0,0,1,1.756,1.459,7.29,7.29,0,0,1,1.167,2.4A11.776,11.776,0,0,1,466.925,308.916Zm-2.069,0a11.262,11.262,0,0,0-.235-2.393,6.7,6.7,0,0,0-.67-1.853,3.365,3.365,0,0,0-1.081-1.2,2.768,2.768,0,0,0-2.937,0,3.35,3.35,0,0,0-1.082,1.2,6.7,6.7,0,0,0-.67,1.853,12.315,12.315,0,0,0,0,4.785,6.678,6.678,0,0,0,.67,1.853,3.45,3.45,0,0,0,1.082,1.208,2.7,2.7,0,0,0,2.937,0,3.466,3.466,0,0,0,1.081-1.208,6.678,6.678,0,0,0,.67-1.853A11.259,11.259,0,0,0,464.856,308.916Zm6.111-8.9h2.022v21.459h-2.022Z" transform="translate(-434.026 -300.019)" fill="#1a1311"/>
      </g>
      <path id="패스_90" data-name="패스 90" d="M467.5,279.741a5.766,5.766,0,0,0,5.575,5.794h8.514L467.5,271.412Z" transform="translate(-2.259)" fill="#fff" stroke="#1a1311" stroke-linejoin="round" stroke-width="2"/>
    </g>
  </g>
</svg>
