<svg xmlns="http://www.w3.org/2000/svg" xmlns:xlink="http://www.w3.org/1999/xlink" width="80" height="80" viewBox="0 0 80 80"><defs><clipPath id="a"><rect width="80" height="80" transform="translate(21 492.128)" fill="#fff"/></clipPath></defs><g transform="translate(-21 -492.128)" clip-path="url(#a)"><g transform="translate(25.77 501.538)"><g transform="translate(7.208 9.986)"><path d="M343.91,521.41v-28.1a1.746,1.746,0,1,1,3.492,0v28.1a1.746,1.746,0,1,1-3.492,0Z" transform="translate(-329.051 -476.651)" fill="#868586"/><path d="M396.07,521.41v-28.1a1.746,1.746,0,1,1,3.492,0v28.1a1.746,1.746,0,1,1-3.492,0Z" transform="translate(-363.165 -476.651)" fill="#868586"/><path d="M350.485,448.31H302.691a1.735,1.735,0,0,0-1.731,1.738V503.6a5.31,5.31,0,0,0,5.29,5.316h40.677a5.308,5.308,0,0,0,5.29-5.316v-53.55A1.733,1.733,0,0,0,350.485,448.31ZM348.754,503.6a1.838,1.838,0,0,1-1.828,1.839H306.25a1.838,1.838,0,0,1-1.828-1.839V451.787h44.332Z" transform="translate(-300.96 -448.31)" fill="#868586"/><path d="M350.485,448.31H302.691a1.735,1.735,0,0,0-1.731,1.738V503.6a5.31,5.31,0,0,0,5.29,5.316h40.677a5.308,5.308,0,0,0,5.29-5.316v-53.55A1.733,1.733,0,0,0,350.485,448.31ZM348.754,503.6a1.838,1.838,0,0,1-1.828,1.839H306.25a1.838,1.838,0,0,1-1.828-1.839V451.787h44.332Z" transform="translate(-300.96 -448.31)" fill="#1a1311"/><path d="M310.96,458.31v51.782a1.836,1.836,0,0,0,1.825,1.838h40.621a1.836,1.836,0,0,0,1.825-1.838V458.31Zm14.848,41.153a1.729,1.729,0,1,1-3.457,0V471.6a1.729,1.729,0,1,1,3.457,0Zm18.032,0a1.729,1.729,0,1,1-3.457,0V471.6a1.729,1.729,0,1,1,3.457,0Z" transform="translate(-307.468 -454.818)" fill="#e1e1e1"/><g transform="translate(14.775 14.967)"><path d="M399.562,493.306v28a1.746,1.746,0,1,1-3.492,0v-28a1.746,1.746,0,1,1,3.492,0Z" transform="translate(-377.857 -491.56)" fill="#1a1311"/><path d="M347.4,493.306v28a1.746,1.746,0,1,1-3.492,0v-28a1.746,1.746,0,1,1,3.492,0Z" transform="translate(-343.91 -491.56)" fill="#1a1311"/></g></g><g transform="translate(0 0)"><path d="M214.091,303.2v-5.863a3.967,3.967,0,0,0-3.94-3.982H194.844a3.968,3.968,0,0,0-3.944,3.982V303.2H170.06v3.77h64.871V303.2Zm-3.731,0H194.631v-5.863a.211.211,0,0,1,.213-.211H210.15a.21.21,0,0,1,.209.211Z" transform="translate(-170.06 -293.36)" fill="#1a1311"/><path d="M251.691,303.57v5.822H235.91V303.57a.21.21,0,0,1,.213-.21h15.358A.209.209,0,0,1,251.691,303.57Z" transform="translate(-211.365 -299.568)" fill="#e1e1e1"/></g><g transform="translate(32.896 32.925)"><ellipse cx="18.5" cy="19" rx="18.5" ry="19" transform="translate(0.335 -0.335)" fill="#4eb6ad"/><path d="M3977.94,2085.449l6.625,6.266,12.121-12.686" transform="translate(-3968.125 -2067.29)" fill="none" stroke="#fff" stroke-linecap="round" stroke-width="4"/></g></g></g></svg>