<svg xmlns="http://www.w3.org/2000/svg" xmlns:xlink="http://www.w3.org/1999/xlink" width="360" height="483" viewBox="0 0 360 483"><defs><clipPath id="a"><rect width="360" height="483" fill="#cc40be"/></clipPath><clipPath id="b"><path d="M507.14-44.062V320.22c0,21.84-10.01,42.32-27.53,60a150.8,150.8,0,0,1-24.02,19.49c-38.41,25.44-94.93,41.51-157.95,41.51-77.9,0-145.87-24.56-181.97-61-12.57-12.68-21.27-26.81-25.19-41.85a71.882,71.882,0,0,1-2.34-18.15V-44.062Z" transform="translate(-113.895 40.901)" fill="#031a04"/></clipPath><linearGradient id="c" x1="0.5" x2="0.5" y2="1" gradientUnits="objectBoundingBox"><stop offset="0" stop-color="#fff" stop-opacity="0.2"/><stop offset="1" stop-color="#fff" stop-opacity="0.4"/></linearGradient><linearGradient id="d" x1="0.5" x2="0.5" y2="1" gradientUnits="objectBoundingBox"><stop offset="0" stop-color="#fff" stop-opacity="0.4"/><stop offset="1" stop-color="#fff" stop-opacity="0.2"/></linearGradient><linearGradient id="e" x1="0.5" x2="0.5" y2="1" gradientUnits="objectBoundingBox"><stop offset="0" stop-opacity="0.302"/><stop offset="1" stop-opacity="0.6"/></linearGradient><linearGradient id="f" x1="0.5" x2="0.5" y2="1" gradientUnits="objectBoundingBox"><stop offset="0" stop-opacity="0.702"/><stop offset="1" stop-opacity="0.302"/></linearGradient></defs><g clip-path="url(#a)"><g clip-path="url(#b)"><rect width="360" height="187" fill="#80c783"/><g transform="translate(-65 139.121)"><path d="M507.14,98.22v222c0,21.84-10.01,42.32-27.53,60a150.8,150.8,0,0,1-24.02,19.49c-38.41,25.44-94.93,41.51-157.95,41.51-77.9,0-145.87-24.56-181.97-61-12.57-12.68-21.27-26.81-25.19-41.85a71.882,71.882,0,0,1-2.34-18.15v-222Z" transform="translate(-48.895 -98.22)" fill="#80c783"/><path d="M97.989,0A97.989,97.989,0,1,1,0,97.989,97.989,97.989,0,0,1,97.989,0Z" transform="translate(43.064 159.779)" opacity="0.6" fill="url(#c)" style="mix-blend-mode:overlay;isolation:isolate"/><path d="M43.952,0A43.952,43.952,0,1,1,0,43.952,43.952,43.952,0,0,1,43.952,0Z" transform="translate(361.266 90)" opacity="0.6" fill="url(#d)" style="mix-blend-mode:overlay;isolation:isolate"/><path d="M93.5,0A93.5,93.5,0,1,1,0,93.5,93.5,93.5,0,0,1,93.5,0Z" transform="translate(303.245 144)" opacity="0.5" fill="url(#e)" style="mix-blend-mode:overlay;isolation:isolate"/><path d="M61.745,0A61.745,61.745,0,1,1,0,61.745,61.745,61.745,0,0,1,61.745,0Z" transform="translate(0 90)" opacity="0.6" fill="url(#f)" style="mix-blend-mode:overlay;isolation:isolate"/><path d="M29.231,0A29.231,29.231,0,1,1,0,29.231,29.231,29.231,0,0,1,29.231,0Z" transform="translate(159.782 228.537)" fill="rgba(0,0,0,0.4)" opacity="0.4" style="mix-blend-mode:overlay;isolation:isolate"/></g></g></g></svg>