<svg xmlns="http://www.w3.org/2000/svg" width="126" height="84" viewBox="0 0 126 84"><g transform="translate(-0.132)"><rect width="126" height="84" transform="translate(0.132)" fill="#ee1c25"/><path d="M9.144-3l7.415,22.82L-2.853,5.716H21.141L1.729,19.82Z" transform="translate(11.88 11.41)" fill="#ff0"/><path d="M4,0,6.471,7.607,0,2.905H8l-6.471,4.7Z" transform="translate(40.013 2.975) rotate(23.036)" fill="#ff0"/><path d="M4,0,6.471,7.607,0,2.905H8l-6.471,4.7Z" transform="matrix(0.696, 0.718, -0.718, 0.696, 50.691, 11.021)" fill="#ff0"/><path d="M4,0,6.471,7.607,0,2.905H8l-6.471,4.7Z" transform="matrix(0.343, 0.939, -0.939, 0.343, 53.036, 24.235)" fill="#ff0"/><path d="M4,0,6.471,7.607,0,2.905H8l-6.471,4.7Z" transform="translate(39.79 32.498) rotate(20.66)" fill="#ff0"/></g></svg>