<svg xmlns="http://www.w3.org/2000/svg" width="126" height="84.02" viewBox="0 0 126 84.02"><rect width="126" height="6.528" transform="translate(0 77.492)" fill="#d62234"/><rect width="126" height="6.528" transform="translate(0 71.024)" fill="#fff"/><rect width="126" height="6.528" transform="translate(0 64.576)" fill="#d62234"/><rect width="126" height="6.528" transform="translate(0 58.179)" fill="#fff"/><rect width="126" height="6.528" transform="translate(0 51.661)" fill="#d62234"/><rect width="126" height="6.528" transform="translate(0 45.264)" fill="#fff"/><rect width="126" height="6.528" transform="translate(0 38.746)" fill="#d62234"/><rect width="126" height="6.528" transform="translate(0 32.349)" fill="#fff"/><rect width="126" height="6.528" transform="translate(0 25.831)" fill="#d62234"/><rect width="126" height="6.528" transform="translate(0 19.433)" fill="#fff"/><rect width="126" height="6.528" transform="translate(0 12.915)" fill="#d62234"/><rect width="126" height="6.528" transform="translate(0 6.467)" fill="#fff"/><rect width="126" height="6.528" fill="#d62234"/><rect width="65.285" height="45.699" fill="#002b82"/><path d="M33.239,17.53h2.2l-1.708,1.22.732,2.074-1.83-1.342L30.8,20.824l.732-2.074L29.7,17.408h2.2l.732-2.074Zm15.986-4.759L48.493,10.7l-.732,2.074H45.686l1.83,1.342-.732,2.074,1.83-1.342,1.83,1.342-.732-2.074,1.83-1.342ZM43.49,15.333l-.732,2.074h-2.2l1.83,1.342-.732,2.074,1.83-1.22,1.83,1.342-.732-2.074,1.83-1.342h-2.2Zm-21.843,0-.732,2.074h-2.2l1.83,1.342-.732,2.074,1.83-1.342,1.83,1.342-.732-2.074,1.83-1.342h-2.2Zm15.986-4.759L36.9,12.649H34.7l1.83,1.342L35.8,16.065l1.83-1.342,1.83,1.342-.732-2.074,1.83-1.342h-2.2Zm-10.86,0-.732,2.074h-2.2l1.83,1.342-.732,2.074,1.83-1.342,1.83,1.342-.732-2.074,1.83-1.342H27.382ZM38.364,21.923l-.732-2.074L36.9,21.923H34.7l1.83,1.342L35.8,25.34,37.632,24l1.83,1.342-.732-2.074,1.83-1.342ZM15.911,10.574l-.732,2.074h-2.2l1.83,1.342-.732,2.074,1.83-1.342,1.83,1.342-.732-2.074,1.83-1.342H16.521ZM27.5,21.923l-.732-2.074-.732,2.074h-2.2l1.83,1.342-.732,2.074L26.772,24,28.6,25.34l-.732-2.074,1.83-1.342Zm21.843,0-.732-2.074-.732,2.074h-2.2l1.83,1.342-.732,2.074L48.615,24l1.708,1.342-.732-2.074,1.83-1.342Zm-38.561-6.59-.732,2.074h-2.2l1.83,1.342-.732,2.074,1.83-1.342,1.83,1.342-.732-2.074,1.83-1.342h-2.2Zm5.735,6.59-.732-2.074-.732,2.074H12.983l1.83,1.342-.732,2.074L15.911,24,17.62,25.34l-.732-2.074,1.83-1.342ZM27.382,31.2l-.61-2.2-.732,2.074h-2.2l1.83,1.342-.732,2.074,1.83-1.342,1.83,1.342-.732-2.074,1.83-1.342Zm27.7-13.667-.732-2.074-.732,2.074h-2.2l1.83,1.22-.732,2.074,1.83-1.342,1.83,1.342-.732-2.074,1.83-1.342Zm0,9.518-.732-2.074-.732,2.074h-2.2l1.83,1.22-.732,2.074L54.35,29l1.83,1.342-.732-2.074,1.83-1.342ZM57.645,6.913l1.83-1.342,1.83,1.342-.732-2.2L62.4,3.374H60.085L59.353,1.3l-.61,2.074h-2.2l1.83,1.342ZM53.252,9.232l-.732,2.074,1.83-1.342,1.83,1.342-.732-2.074,1.83-1.342h-2.2L54.35,5.815,53.618,7.89h-2.2ZM49.225,31.2,48.493,29l-.732,2.074H45.686l1.83,1.342-.732,2.074,1.83-1.342,1.83,1.342-.732-2.074,1.83-1.342Zm-10.86,0L37.632,29,36.9,31.075H34.7l1.83,1.342L35.8,34.492l1.83-1.342,1.83,1.342-.732-2.074,1.83-1.342Zm-21.843,0-.61-2.2-.732,2.074h-2.2l1.83,1.342-.732,2.074,1.83-1.342,1.83,1.342-.732-2.074,1.83-1.342Zm5.857-4.149-.732-2.074-.732,2.074h-2.2l1.83,1.342-.732,2.074,1.83-1.342,1.83,1.342-.732-2.2,1.83-1.342Zm21.843,0-.732-2.2-.732,2.074h-2.2l1.83,1.342-.732,2.074,1.83-1.22,1.83,1.342-.732-2.074,1.83-1.342Zm-32.7,0-.732-2.074-.732,2.074h-2.2l1.83,1.342-.732,2.074,1.83-1.342,1.83,1.342-.732-2.074,1.83-1.342Zm21.843,0-.732-2.074L31.9,27.048H29.7l1.83,1.342L30.8,30.465l1.83-1.342,1.83,1.342-.732-2.2,1.83-1.342ZM46.784,6.913l1.83-1.342,1.83,1.342-.732-2.074,1.708-1.464h-2.2L48.493,1.3l-.61,2.074h-2.2l1.83,1.342Zm2.441,33.558L48.493,38.4l-.732,2.074H45.686l1.83,1.342-.732,2.074,1.83-1.342,1.83,1.342-.732-2.074,1.83-1.342ZM35.436,36.444h-2.2l-.732-2.074-.732,2.074H29.7l1.83,1.342L30.8,39.861l1.83-1.342,1.83,1.342-.732-2.074Zm10.86,0H44.222L43.49,34.37l-.732,2.074h-2.2l1.83,1.342-.732,2.074,1.83-1.22,1.83,1.342-.732-2.074Zm-8.054,3.9-.732-2.074-.732,2.074H34.7l1.83,1.342L35.8,43.766l1.83-1.342,1.83,1.342-.732-2.074,1.83-1.342Zm-13.667-3.9h-2.2l-.732-2.074-.732,2.074h-2.2l1.83,1.342-.732,2.074,1.83-1.342,1.83,1.342-.732-2.074ZM42.391,9.232l-.732,2.074,1.83-1.22,1.83,1.342-.732-2.074,1.83-1.342h-2.2l-.732-2.2L42.757,7.89h-2.2ZM57.279,36.444h-2.2L54.35,34.37l-.732,2.074h-2.2l1.83,1.342-.732,2.074,1.83-1.342,1.83,1.342-.732-2.074Zm2.2-25.87-.732,2.074h-2.2l1.83,1.342-.732,2.074,1.83-1.342,1.83,1.342-.732-2.074,1.83-1.342H60.085Zm0,9.274-.732,2.074h-2.2l1.83,1.342-.732,2.074L59.475,24l1.83,1.342-.732-2.074,1.83-1.342H60.085Zm-42.954,20.5-.732-2.074-.732,2.074H12.983l1.83,1.342-.732,2.074,1.83-1.342,1.83,1.342-.732-2.074,1.83-1.342Zm43.564,0-.732-2.074-.732,2.074H56.547l1.83,1.342-.732,2.074,1.83-1.342,1.83,1.342-.732-2.074,1.83-1.342ZM59.475,29l-.732,2.074h-2.2l1.83,1.342-.732,2.074,1.83-1.342,1.83,1.342-.732-2.074,1.83-1.342H60.085ZM27.382,40.349l-.732-2.074-.732,2.074H23.843l1.83,1.342-.732,2.074,1.83-1.342,1.83,1.342-.732-2.074,1.83-1.342ZM9.688,9.232l-.732,2.2,1.83-1.342,1.83,1.342-.732-2.074,1.83-1.342h-2.2l-.732-2.2-.732,2.2h-2.2Zm4.393-2.441,1.83-1.342,1.83,1.342-.732-2.074,1.708-1.342h-2.2L15.789,1.3l-.61,2.074h-2.2l1.83,1.342Zm10.86,0,1.83-1.342L28.6,6.791,27.87,4.717,29.7,3.374H27.382L26.65,1.3l-.61,2.074h-2.2l1.83,1.342ZM20.548,9.232l-.732,2.074,1.83-1.342,1.83,1.342-.732-2.074,1.83-1.342h-2.2l-.732-2.074L20.914,7.89h-2.2ZM35.8,6.791l1.83-1.342,1.83,1.342L38.73,4.717l1.83-1.342h-2.2L37.632,1.3l-.61,2.074H34.7l1.83,1.342ZM31.409,9.232l-.732,2.074,1.83-1.342,1.83,1.342-.61-2.074,1.83-1.342H33.239l-.61-2.074L31.9,7.89H29.7ZM13.715,36.444h-2.2l-.732-2.074-.732,2.074h-2.2l1.83,1.342-.732,2.074,1.83-1.342,1.83,1.342-.732-2.074ZM3.1,34.614l1.83-1.342,1.83,1.342-.732-2.074L7.857,31.2h-2.2L4.929,29,4.2,31.075H2l1.83,1.342Zm2.441,5.857L4.807,38.4l-.732,2.074H2l1.83,1.342L3.1,43.888l1.83-1.342,1.83,1.342-.732-2.074,1.83-1.342ZM3.1,25.34,4.929,24l1.83,1.342-.732-2.074,1.83-1.342h-2.2l-.732-2.074L4.2,21.923H2l1.83,1.342Zm0-9.274,1.83-1.342,1.83,1.342-.732-2.074,1.83-1.342h-2.2l-.732-2.074L4.2,12.649H2l1.83,1.342Zm0-9.274,1.83-1.22,1.83,1.342-.732-2.2,1.83-1.342h-2.2L4.929,1.3l-.61,2.074H2L3.83,4.717Z" transform="translate(0.441 0.286)" fill="#fff"/></svg>