<svg xmlns="http://www.w3.org/2000/svg" xmlns:xlink="http://www.w3.org/1999/xlink" width="80" height="160" viewBox="0 0 80 160"><defs><clipPath id="a"><rect width="80" height="80" transform="translate(259 258)" fill="#fff"/></clipPath><linearGradient id="b" x1="0.5" x2="0.5" y2="1" gradientUnits="objectBoundingBox"><stop offset="0" stop-color="#4777d9"/><stop offset="1" stop-color="#2f4f8f"/></linearGradient><clipPath id="c"><rect width="80" height="80" transform="translate(21 492)" fill="#fff"/></clipPath></defs><g transform="translate(-21 -395)"><g transform="translate(-238 137)" clip-path="url(#a)"><path d="M38.246,3.2a2,2,0,0,1,3.508,0L78.378,70.039A2,2,0,0,1,76.624,73H3.376a2,2,0,0,1-1.754-2.961Z" transform="translate(259 265)" fill="url(#b)"/></g><g transform="translate(0 -17)" clip-path="url(#c)"><path d="M38.246,3.2a2,2,0,0,1,3.508,0L78.378,70.039A2,2,0,0,1,76.624,73H3.376a2,2,0,0,1-1.754-2.961Z" transform="translate(101 565) rotate(180)" fill="url(#b)"/><g transform="translate(-133.486 250.514)"><circle cx="20" cy="20" r="20" transform="translate(193.486 273.486)" fill="#4eb6ad"/><path d="M3977.94,2085.759l6.945,6.569,12.707-13.3" transform="translate(-3773.679 -1792.721)" fill="none" stroke="#fff" stroke-linecap="round" stroke-width="4"/></g></g></g></svg>