<svg xmlns="http://www.w3.org/2000/svg" xmlns:xlink="http://www.w3.org/1999/xlink" width="80" height="80" viewBox="0 0 80 80"><defs><clipPath id="a"><rect width="80" height="80" transform="translate(86 470.854)" fill="#fff" stroke="#707070" stroke-width="1"/></clipPath></defs><g transform="translate(-86 -470.854)" clip-path="url(#a)"><g transform="translate(98.358 471)"><g transform="translate(3.128 21.862)"><path d="M266.59,442.293V416.055a1.637,1.637,0,0,1,3.273,0v26.238a1.637,1.637,0,0,1-3.273,0Z" transform="translate(-252.402 -400.266)" fill="#868586"/><path d="M318.7,442.293V416.055a1.637,1.637,0,0,1,3.273,0v26.238a1.637,1.637,0,0,1-3.273,0Z" transform="translate(-287.277 -400.266)" fill="#868586"/><path d="M270.915,371.225H225.336a1.644,1.644,0,0,0-1.651,1.636v50.4a5.031,5.031,0,0,0,5.045,5h38.792a5.029,5.029,0,0,0,5.044-5v-50.4A1.642,1.642,0,0,0,270.915,371.225Zm-1.651,52.038a1.741,1.741,0,0,1-1.743,1.731H228.73a1.741,1.741,0,0,1-1.743-1.731V374.5h42.278Z" transform="translate(-223.685 -371.225)" fill="#868586"/><path d="M270.915,371.225H225.336a1.644,1.644,0,0,0-1.651,1.636v50.4a5.031,5.031,0,0,0,5.045,5h38.792a5.029,5.029,0,0,0,5.044-5v-50.4A1.642,1.642,0,0,0,270.915,371.225Zm-1.651,52.038a1.741,1.741,0,0,1-1.743,1.731H228.73a1.741,1.741,0,0,1-1.743-1.731V374.5h42.278Z" transform="translate(-223.685 -371.225)" fill="#1a1311"/><path d="M233.675,381.212v48.765a1.742,1.742,0,0,0,1.745,1.731h38.843a1.742,1.742,0,0,0,1.745-1.731V381.212Zm14.2,38.755a1.653,1.653,0,0,1-3.306,0V393.729a1.653,1.653,0,0,1,3.306,0Zm17.243,0a1.653,1.653,0,0,1-3.306,0V393.729a1.653,1.653,0,0,1,3.306,0Z" transform="translate(-230.402 -377.94)" fill="#e1e1e1"/><g transform="translate(14.267 14.153)"><path d="M321.969,416.055v26.238a1.637,1.637,0,0,1-3.273,0V416.055a1.637,1.637,0,0,1,3.273,0Z" transform="translate(-301.623 -414.419)" fill="#1a1311"/><path d="M269.863,416.055v26.238a1.637,1.637,0,0,1-3.273,0V416.055a1.637,1.637,0,0,1,3.273,0Z" transform="translate(-266.59 -414.419)" fill="#1a1311"/></g></g><g transform="translate(0)"><path d="M250.813,311.4l-1.716-4.8a3.5,3.5,0,0,0-4.448-2.1L231.9,309a3.454,3.454,0,0,0-2.12,4.414l1.716,4.8-17.359,6.116,1.1,3.084,54.033-19.036-1.1-3.084Zm-3.108,1.095-13.1,4.615-1.716-4.8a.184.184,0,0,1,.116-.235l12.749-4.492a.184.184,0,0,1,.236.111Z" transform="translate(-214.138 -304.308)" fill="#1a1311"/><path d="M283.909,314.416l1.7,4.8-13,4.616-1.7-4.8a.184.184,0,0,1,.115-.235l12.653-4.492A.183.183,0,0,1,283.909,314.416Z" transform="translate(-252.105 -311.022)" fill="#e1e1e1"/></g></g></g></svg>